<?xml version="1.0" standalone="no"?>
<!DOCTYPE svg PUBLIC "-//W3C//DTD SVG 20010904//EN"
 "http://www.w3.org/TR/2001/REC-SVG-20010904/DTD/svg10.dtd">
<svg version="1.0" xmlns="http://www.w3.org/2000/svg"
 width="512.000000pt" height="512.000000pt" viewBox="0 0 512.000000 512.000000"
 preserveAspectRatio="xMidYMid meet">

<g transform="translate(0.000000,512.000000) scale(0.100000,-0.100000)"
fill="#000000" stroke="none">
<path d="M2483 4330 c-39 -16 -43 -41 -43 -243 0 -225 4 -239 75 -239 71 0 75
14 75 242 0 174 -2 200 -17 218 -21 25 -60 35 -90 22z"/>
<path d="M1656 4099 c-18 -14 -26 -30 -26 -51 0 -37 173 -343 207 -365 45 -30
113 9 113 64 0 30 -186 350 -210 363 -29 15 -55 12 -84 -11z"/>
<path d="M3267 4088 c-51 -69 -187 -317 -187 -341 0 -57 75 -96 117 -60 36 30
203 329 203 362 0 36 -40 71 -81 71 -20 0 -35 -9 -52 -32z"/>
<path d="M2365 3616 c-268 -42 -516 -197 -664 -414 -126 -186 -178 -379 -168
-620 5 -138 33 -254 87 -366 l28 -59 -34 -70 c-51 -107 -68 -198 -61 -336 6
-129 25 -200 84 -313 67 -128 210 -256 350 -313 67 -27 195 -55 251 -55 55 0
92 31 92 76 0 49 -27 71 -97 79 -162 18 -264 66 -368 170 -112 112 -165 236
-165 390 0 248 177 478 415 540 75 19 201 19 283 0 56 -13 66 -13 92 0 17 9
30 19 30 24 0 4 27 38 60 74 259 283 686 302 966 45 65 -59 138 -166 170 -249
15 -38 32 -73 38 -78 6 -5 39 -19 74 -30 198 -67 322 -233 322 -432 0 -240
-172 -427 -420 -455 -40 -4 -70 -14 -81 -25 -26 -26 -25 -83 2 -110 19 -19 29
-21 92 -15 151 14 307 92 407 204 58 64 123 190 139 270 16 75 14 208 -4 275
-44 170 -178 329 -337 402 -85 39 -86 40 -118 105 -62 126 -180 264 -286 334
-40 26 -42 30 -48 91 -21 202 -130 425 -283 579 -231 232 -529 331 -848 282z
m355 -167 c159 -40 327 -147 434 -276 84 -101 160 -258 180 -374 l6 -36 -52
15 c-79 23 -323 22 -408 -2 -152 -41 -308 -136 -410 -247 l-45 -50 -75 11
c-178 26 -377 -30 -532 -148 l-67 -51 -19 52 c-38 102 -47 160 -47 297 0 142
12 204 59 322 36 88 84 163 155 240 211 229 521 322 821 247z"/>
<path d="M1066 3508 c-37 -34 -42 -70 -14 -101 28 -31 334 -207 360 -207 49 0
86 82 56 123 -17 22 -338 207 -359 207 -10 0 -29 -10 -43 -22z"/>
<path d="M3743 3437 c-89 -52 -169 -99 -177 -106 -25 -21 -20 -78 9 -106 13
-14 32 -25 42 -25 22 0 329 172 357 200 28 27 24 80 -9 108 -14 12 -34 22 -43
22 -9 0 -90 -42 -179 -93z"/>
<path d="M863 2710 c-48 -20 -57 -87 -18 -126 l25 -25 201 3 c197 3 201 3 220
27 24 30 24 72 0 102 -19 24 -23 24 -213 26 -106 1 -203 -2 -215 -7z"/>
<path d="M3773 2713 c-50 -10 -69 -81 -34 -124 19 -24 21 -24 226 -24 205 0
207 0 226 24 24 30 24 72 0 102 -19 24 -23 24 -208 26 -103 0 -198 -1 -210 -4z"/>
<path d="M1234 1989 c-177 -101 -209 -128 -199 -168 7 -30 49 -71 73 -71 17 0
324 171 355 198 17 15 22 56 11 87 -6 15 -53 45 -72 45 -4 0 -80 -41 -168 -91z"/>
<path d="M2316 1491 c-35 -38 -17 -115 29 -127 36 -9 73 3 86 28 17 31 13 77
-7 99 -23 26 -85 26 -108 0z"/>
<path d="M2600 1488 c-43 -47 -6 -128 59 -128 59 0 94 87 51 130 -27 27 -83
27 -110 -2z"/>
<path d="M2887 1492 c-24 -26 -22 -87 3 -112 38 -38 118 -13 121 38 2 35 -3
57 -18 75 -22 23 -85 23 -106 -1z"/>
<path d="M3184 1502 c-16 -11 -34 -48 -34 -72 0 -31 44 -70 79 -70 59 0 94 87
51 130 -20 20 -74 27 -96 12z"/>
<path d="M3457 1492 c-10 -10 -17 -35 -17 -55 0 -87 110 -108 139 -27 11 33 7
55 -17 83 -20 23 -84 23 -105 -1z"/>
<path d="M2484 1212 c-39 -26 -40 -100 -1 -127 71 -50 158 54 97 115 -20 20
-74 27 -96 12z"/>
<path d="M2777 1202 c-27 -30 -22 -87 9 -111 62 -49 126 -4 114 79 -6 48 -90
69 -123 32z"/>
<path d="M3094 1212 c-39 -26 -40 -100 -1 -127 71 -50 158 54 97 115 -20 20
-74 27 -96 12z"/>
<path d="M3387 1202 c-27 -30 -22 -87 9 -111 61 -48 126 -2 114 79 -6 48 -90
69 -123 32z"/>
<path d="M2658 913 c-24 -28 -28 -50 -17 -83 19 -54 74 -66 114 -25 31 30 33
77 5 105 -25 25 -81 27 -102 3z"/>
<path d="M2940 910 c-28 -28 -26 -75 5 -105 29 -30 64 -32 96 -6 29 23 31 81
4 111 -24 26 -78 27 -105 0z"/>
<path d="M3227 913 c-27 -31 -26 -84 3 -113 26 -26 60 -25 94 1 33 26 36 79 6
109 -25 25 -81 26 -103 3z"/>
<path d="M3510 910 c-28 -28 -26 -75 5 -105 43 -44 109 -23 121 40 13 68 -77
114 -126 65z"/>
<path d="M3797 912 c-24 -26 -22 -87 3 -112 26 -26 60 -25 94 1 33 26 36 79 6
109 -26 26 -81 26 -103 2z"/>
</g>
</svg>
